<?xml version="1.0" standalone="no"?>
<!DOCTYPE svg PUBLIC "-//W3C//DTD SVG 20010904//EN"
 "http://www.w3.org/TR/2001/REC-SVG-20010904/DTD/svg10.dtd">
<svg
  xmlns="http://www.w3.org/2000/svg"
  width="40pt"
  height="40pt"
  viewBox="0 0 192 192"
  preserveAspectRatio="xMidYMid meet"
>

<g transform="translate(0.000000,192.000000) scale(0.100000,-0.100000)"
fill="#0082cb" stroke="none">
<path d="M572 1807 c-40 -41 -62 -71 -62 -86 0 -17 55 -78 204 -227 198 -197
232 -223 273 -210 27 9 433 419 433 438 0 23 -129 148 -153 148 -13 0 -74 -53
-164 -142 l-143 -142 -143 142 c-89 89 -150 142 -162 142 -12 0 -47 -27 -83
-63z"/>
<path d="M262 1497 c-34 -34 -62 -71 -62 -82 0 -12 56 -76 142 -162 l143 -143
-143 -143 c-104 -104 -142 -149 -142 -166 0 -30 117 -151 145 -151 11 0 105
86 227 208 163 163 209 214 214 240 7 32 1 39 -207 248 -140 140 -220 214
-234 214 -12 0 -47 -26 -83 -63z"/>
<path d="M1347 1352 c-197 -197 -207 -209 -207 -245 0 -36 10 -49 209 -248
115 -115 217 -209 227 -209 20 0 154 130 154 150 0 7 -66 80 -147 162 l-147
148 147 148 c81 81 147 152 147 157 0 21 -131 145 -153 145 -16 0 -83 -61
-230 -208z"/>
<path d="M572 577 c-43 -43 -62 -70 -62 -88 0 -19 48 -72 208 -232 189 -188
211 -207 242 -207 31 0 53 19 242 207 114 114 211 216 214 226 5 15 -11 37
-62 88 -38 38 -75 69 -84 69 -8 0 -78 -63 -155 -140 -77 -77 -144 -140 -150
-140 -5 0 -73 63 -150 140 -85 84 -149 140 -161 140 -11 0 -48 -28 -82 -63z"/>
</g>
</svg>
